<?xml version="1.0" encoding="UTF-8"?>
<svg xmlns="http://www.w3.org/2000/svg" xmlns:xlink="http://www.w3.org/1999/xlink" width="64pt" height="64pt" viewBox="0 0 64 64" version="1.1">
<g id="surface1">
<path style=" stroke:none;fill-rule:nonzero;fill:rgb(78.823529%,90.980392%,98.039216%);fill-opacity:1;" d="M 1.960938 4.910156 L 62.039062 4.910156 L 62.039062 59.089844 L 1.960938 59.089844 Z M 1.960938 4.910156 "/>
<path style=" stroke:none;fill-rule:nonzero;fill:rgb(40.392157%,74.901961%,100%);fill-opacity:1;" d="M 0 2.949219 L 0 61.050781 L 64 61.050781 L 64 2.949219 Z M 60.082031 57.132812 L 3.917969 57.132812 L 3.917969 6.867188 L 60.082031 6.867188 Z M 60.082031 57.132812 "/>
<path style=" stroke:none;fill-rule:nonzero;fill:rgb(71.372549%,87.843137%,96.862745%);fill-opacity:1;" d="M 32 4.910156 L 62.039062 4.910156 L 62.039062 59.089844 L 32 59.089844 Z M 32 4.910156 "/>
<path style=" stroke:none;fill-rule:nonzero;fill:rgb(0%,53.333333%,100%);fill-opacity:1;" d="M 64 2.949219 L 64 61.050781 L 32 61.050781 L 32 57.132812 L 60.082031 57.132812 L 60.082031 6.867188 L 32 6.867188 L 32 2.949219 Z M 64 2.949219 "/>
<path style=" stroke:none;fill-rule:nonzero;fill:rgb(78.823529%,67.843137%,56.862745%);fill-opacity:1;" d="M 0 2.949219 L 64 2.949219 L 64 13.921875 L 0 13.921875 Z M 0 2.949219 "/>
<path style=" stroke:none;fill-rule:nonzero;fill:rgb(70.196078%,54.117647%,39.607843%);fill-opacity:1;" d="M 32 2.949219 L 64 2.949219 L 64 13.921875 L 32 13.921875 Z M 32 2.949219 "/>
<path style=" stroke:none;fill-rule:nonzero;fill:rgb(54.117647%,40.392157%,27.45098%);fill-opacity:1;" d="M 49.707031 2.949219 L 64 2.949219 L 64 13.921875 L 49.707031 13.921875 Z M 49.707031 2.949219 "/>
<path style=" stroke:none;fill-rule:nonzero;fill:rgb(100%,100%,100%);fill-opacity:1;" d="M 52.722656 7.378906 L 54.464844 7.378906 L 54.464844 9.121094 L 52.722656 9.121094 Z M 52.722656 7.378906 "/>
<path style=" stroke:none;fill-rule:nonzero;fill:rgb(100%,100%,100%);fill-opacity:1;" d="M 56.113281 7.378906 L 57.855469 7.378906 L 57.855469 9.121094 L 56.113281 9.121094 Z M 56.113281 7.378906 "/>
<path style=" stroke:none;fill-rule:nonzero;fill:rgb(100%,100%,100%);fill-opacity:1;" d="M 59.5 7.378906 L 61.242188 7.378906 L 61.242188 9.121094 L 59.5 9.121094 Z M 59.5 7.378906 "/>
<path style=" stroke:none;fill-rule:nonzero;fill:rgb(99.215686%,43.921569%,32.156863%);fill-opacity:1;" d="M 45.269531 35.496094 C 45.269531 42.773438 39.371094 48.671875 32.09375 48.671875 C 32.0625 48.671875 32.03125 48.671875 32 48.667969 C 28.441406 48.644531 25.21875 47.210938 22.863281 44.894531 C 20.746094 42.8125 19.332031 40.027344 18.996094 36.914062 C 18.949219 36.449219 18.921875 35.976562 18.921875 35.496094 C 18.921875 31.546875 20.660156 28.003906 23.410156 25.589844 C 23.441406 25.5625 23.46875 25.539062 23.5 25.511719 C 24.574219 24.589844 25.796875 23.835938 27.128906 23.292969 C 28.632812 22.679688 30.277344 22.335938 32 22.324219 C 32.03125 22.324219 32.0625 22.324219 32.09375 22.324219 C 39.371094 22.320312 45.269531 28.21875 45.269531 35.496094 Z M 45.269531 35.496094 "/>
<path style=" stroke:none;fill-rule:nonzero;fill:rgb(100%,30.980392%,9.411765%);fill-opacity:1;" d="M 45.269531 35.496094 C 45.269531 42.773438 39.371094 48.671875 32.09375 48.671875 C 32.0625 48.671875 32.03125 48.671875 32 48.667969 L 32 22.324219 C 32.03125 22.324219 32.0625 22.324219 32.09375 22.324219 C 39.371094 22.320312 45.269531 28.21875 45.269531 35.496094 Z M 45.269531 35.496094 "/>
<path style=" stroke:none;fill-rule:nonzero;fill:rgb(100%,100%,100%);fill-opacity:1;" d="M 34.773438 35.625 L 38.289062 39.140625 L 35.519531 41.914062 L 32.003906 38.394531 L 28.300781 42.09375 L 25.53125 39.324219 L 29.230469 35.625 L 25.714844 32.105469 L 28.484375 29.335938 L 32 32.851562 L 32.003906 32.851562 L 35.699219 29.152344 L 38.472656 31.925781 Z M 34.773438 35.625 "/>
<path style=" stroke:none;fill-rule:nonzero;fill:rgb(85.098039%,84.705882%,85.882353%);fill-opacity:1;" d="M 34.773438 35.625 L 38.289062 39.140625 L 35.519531 41.914062 L 32.003906 38.394531 L 32 38.394531 L 32 32.851562 L 32.003906 32.851562 L 35.699219 29.152344 L 38.472656 31.925781 Z M 34.773438 35.625 "/>
</g>
</svg>
